<?xml version="1.0" encoding="UTF-8"?><svg id="a" xmlns="http://www.w3.org/2000/svg" viewBox="0 0 800 600.7"><path d="M506.7,423.87c-.33,4.15-.41,8.35-1.09,12.44-.45,2.73-1.45,5.48-2.78,7.91-2.25,4.11-5.07,4.92-9.34,2.94-7.58-3.53-13.35-9.25-17.72-16.19-4.21-6.67-7.81-13.72-11.67-20.6-.5-.9-1.01-1.8-1.64-2.94-3.45,3.55-4.45,7.66-4.84,11.96-1.23,13.61-1.94,27.28-3.71,40.82-1.56,11.97-4.24,23.8-6.56,35.67-.2,1.01-1.33,2.49-2.19,2.61-12.57,1.72-25.13,3.68-37.77,4.67-10.17,.79-20.16-1.84-30.13-3.76-3.54-.68-7.06-1.44-10.61-2.01-2.4-.39-3.52-1.78-3.99-4.02-2.37-11.36-5.1-22.66-7.08-34.09-2.89-16.72-5.25-33.53-7.85-50.3-.15-.96-.41-1.9-.98-2.87-.61,3.99-1.08,8.01-1.87,11.97-2.22,11.17-7.35,20.73-16.29,27.98-5.23,4.24-8.15,3.57-11.31-2.38-3.27-6.14-4.28-12.91-5.22-19.68-.09-.65-.15-1.3-.32-2.67-1.08,1.18-1.76,1.91-2.44,2.65-8.42,9.27-17.61,17.49-29.77,21.57-5.59,1.88-11.3,2.21-17,.57-6.45-1.85-10.48-7.26-10.96-14.01-.7-9.7,2.9-17.88,9.16-24.84,4.41-4.91,9.55-9.16,14.48-13.81-3.5-.69-7.27-1.3-10.98-2.18-8.28-1.96-16.32-4.48-23.59-9.15-5.77-3.71-9.17-8.4-7.83-15.59,.14-.76,.02-1.58,.17-2.34,1.38-6.97-1.47-12.4-6.8-16.35-6.49-4.81-13.39-9.08-20.11-13.57-4.86-3.25-9.97-6.17-14.54-9.79-4.94-3.9-4.63-7.76,1.16-10.2,5.67-2.39,11.79-4.13,17.88-5,19.84-2.84,39.78-2.41,59.63,0,17.26,2.1,33.85,6.55,48.86,15.78,8.38,5.15,15.24,11.89,20.74,19.98,1.3,1.91,2.5,2.19,4.53,1.63,6.47-1.8,13.07-3.19,19.47-5.22,11.99-3.79,16.34-9.7,16.88-22.29,.15-3.48,.02-6.96,.02-11.12,13.42,5.98,26.16,5.19,38.87-.72,.31,4.88,.36,9.52,.95,14.1,1.78,13.92,7.47,19.82,21.36,22.35,5.94,1.09,11.92,1.97,17.88,2.98,10.71,1.81,18.94,7.56,24.04,16.93,2.76,5.07,6.27,7,11.69,7.66,12.92,1.58,25.82,3.03,38.85,2.3,3.86-.22,7.77-.92,11.48-1.99,1.7-.49,3.7-2.16,4.3-3.77,.9-2.41-1.26-4.12-3.17-5.37-4.69-3.1-10.07-4.1-15.52-4.63-15.26-1.49-30.19,.03-44.77,5.27-1.66-2.27-3.31-4.53-5.22-7.15,7.03-2.37,13.82-4.72,20.65-6.94,11.86-3.85,23.96-7.08,35.04-13,3.42-1.83,6.61-4.14,9.71-6.48,1.61-1.21,3.45-3.19,2.1-5.2-.97-1.44-3.22-2.56-5.03-2.8-6.79-.88-13.44,.3-19.88,2.47-16.71,5.63-30.97,15.06-42.97,27.96-.45,.49-.97,.92-1.57,1.49-1.84-1.39-3.61-2.72-5.63-4.24,3.07-5.72,7.09-10.68,11.69-15.18,11.39-11.15,25.53-17.02,40.66-20.82,20.92-5.26,42.21-6.67,63.67-5.35,8.54,.52,17.07,1.67,25.5,3.15,3.62,.64,7.15,2.54,10.38,4.44,3.37,1.98,3.72,4.87,.83,7.47-3.46,3.1-7.36,5.75-11.23,8.35-8.25,5.53-16.75,10.7-24.87,16.42-6.01,4.23-8.48,10.23-6.98,17.69,1.45,7.18-1.36,12.48-7.37,16.46-8.73,5.78-18.56,8.42-28.61,10.55-2.07,.44-4.17,.8-6.19,1.19,4.4,3.86,8.89,7.45,12.96,11.47,5.29,5.22,9.38,11.37,10.73,18.79,.65,3.57,.77,7.46,.1,11.01-1.4,7.35-7.33,11.67-15.23,12.12-8.03,.45-15.42-1.74-21.83-6.26-6.75-4.76-12.96-10.31-19.36-15.56-.58-.47-.86-1.3-1.27-1.97l-.75,.62Zm-182.16-71.13c-1.73,2-3.43,3.36-4.31,5.13-1.07,2.15-2.47,1.81-4.25,1.64-8.54-.78-17.08-1.83-25.63-2.01-6.31-.14-12.7,.72-18.42,3.86-2.61,1.43-6.02,2.81-5.43,6.45,.56,3.49,4.08,4.49,7.04,4.68,8.84,.56,17.7,.93,26.55,.88,5.1-.03,10.2-1.02,15.44-1.6-.24,3.54-.33,6.85-.77,10.11-.12,.91-1.15,1.91-2.02,2.45-2.14,1.35-4.52,2.32-6.64,3.68-8.06,5.18-15.11,11.45-19.98,19.81-.78,1.34-1.06,3.46-.56,4.84,.27,.74,2.7,.82,4.18,.94,.93,.08,1.92-.24,2.85-.5,8.56-2.33,15.8-7.05,22.54-12.63,.63-.53,1.05-1.62,1.11-2.48,.44-6.82,.71-13.66,1.16-20.48,.49-7.48,1.62-14.86,6.9-20.67,2.38-2.62,5.36-4.69,8.28-7.18-.57-.67-1.22-1.64-2.06-2.39-12.96-11.61-27.31-20.86-44.44-24.88-4.55-1.07-9.5-1.15-14.18-.71-4.8,.45-5.81,3.66-2.43,6.99,2.46,2.44,5.28,4.83,8.4,6.24,9.3,4.2,18.76,8.07,28.29,11.75,5.95,2.3,12.12,4.01,18.41,6.05Zm167.06,28.69c2.22,5.68,4.12,10.54,6.04,15.39,.14,.34,.44,.65,.74,.9,8,6.6,16.32,12.73,26.57,15.32,2.13,.54,5.57,.7,6.66-.53,1.77-1.99-.48-4.51-1.9-6.42-7.64-10.24-17.34-17.82-29.38-22.24-2.58-.95-5.31-1.49-8.74-2.42Z"/><path d="M500.05,130.05c1.34-1.8,3.49-3.38,3.42-4.85-.17-3.22-.92-6.67-2.43-9.5-2.52-4.71-5.75-9.06-8.83-13.46-.97-1.38-2.59-2.29-3.58-3.66-.82-1.13-1.54-2.62-1.52-3.94,.01-.68,2.06-2.09,2.61-1.84,1.22,.54,2.25,1.79,3.01,2.97,.75,1.17,.84,2.78,1.64,3.89,2.57,3.54,5.34,6.93,8.49,10.96,.62-4.48,1.34-8.28,1.6-12.11,.17-2.42-.56-4.9-.48-7.34,.04-1.37,.58-3.07,1.53-3.93,.54-.49,3.06,.05,3.41,.75,.55,1.12,.17,2.8-.1,4.18-.26,1.35-1.22,2.62-1.29,3.96-.29,5.66-.73,11.36-.37,16.99,.22,3.49,1.51,7.01,2.9,10.27,.42,.97,2.83,1.08,4.27,1.57,2.08-6.41,3.75-12.61,6.07-18.55,5.67-14.49,14.4-27,25.56-37.81,1.19-1.15,2.51-2.19,3.9-3.09,3.44-2.24,6.41-1.25,7.42,2.7,.71,2.81,1.26,5.79,1.13,8.66-.47,10.13-1.16,20.26-1.99,30.37-.25,3.09,.34,5.58,2.69,7.62,1.85,1.6,3.88,3.05,5.45,4.89,1.74,2.04,3.48,4.29,4.42,6.75,1.82,4.77-.58,8.05-5.69,8.38-3.51,.23-7.05,.2-10.53,.63-1.76,.22-3.83,.79-5.05,1.95-4.98,4.7-10.8,7.23-17.54,7.88-.36,.03-.71,.19-1.74,.47,4.34,.96,8.06,1.67,11.72,2.6,7.01,1.79,13.34,4.93,18.66,9.92,.43,.4,1.01,.77,1.2,1.27,.8,2.09,2.33,4.38,1.98,6.3-.47,2.58-3.46,1.85-5.53,1.92-2.33,.08-4.67,.02-7.39,.02,.49,1.55,1.05,2.94,1.37,4.39,.66,2.93,1.51,5.86,1.69,8.83,.19,3.09-1.74,4.63-4.73,3.72-2.13-.65-4-2.21-5.9-3.5-.76-.51-1.28-1.37-2.01-2.18-.49,1.84-.82,3.43-1.35,4.96-.79,2.28-2.44,2.66-3.98,.97-2.03-2.22-4.1-4.55-5.46-7.19-3.61-7.01-6.85-14.22-10.23-21.35-.41-.87-.83-1.74-1.18-2.46-3.22,.21-6.29,.41-10.25,.66-.46,3.92-1.23,8.1-1.37,12.3-.3,8.58-1.71,16.89-5.34,24.7-1.5,3.24-2.97,6.56-6.68,8.16-.73,.31-1.05,1.94-1.27,3.02-2.32,11.44-6.12,22.36-11.37,32.78-1.34,2.67-3.03,5.17-4.84,7.65,3.93-16.54,7.41-32.99,.68-49.49l-.8-.06c-.26,2.84-.55,5.68-.79,8.52-.82,9.83-1.25,19.71-2.5,29.48-2.6,20.18-9.29,38.81-23.99,53.48-12.64,12.61-28.37,19.82-45.79,23.21-6.82,1.33-13.34-.75-19.66-3.3-17.92-7.24-33.65-17.37-44.38-33.95-7.67-11.85-11.55-25.06-13.33-38.94-1.25-9.77-2.36-19.56-3.56-29.34-.07-.55-.29-1.08-.45-1.63l-1-.15c-.7,3.67-1.78,7.32-2.03,11.02-1.22,17.88,2.84,34.67,10.93,50.56,.73,1.44,1.39,2.91,2.08,4.37l-.87,.81c-5.01-4.15-10.03-8.3-15.11-12.51-5.22,15.14-4.98,29.89,4.71,43.4,4.19,5.84,9.33,11.01,14.04,16.48,.93,1.08,1.86,2.17,2.89,3.38-8.22,2.13-27.62-9.41-36.12-20.71-11.38-15.13-10.21-40.78,2.42-58.19-3.61-7.41-7.57-14.5-10.61-21.96-7.5-18.39-9.37-37.58-6.78-57.21,2.95-22.38,11.81-42.18,26.73-59.09,14.08-15.95,32.04-25.72,52.52-30.69,23.13-5.61,45.87-4.8,67.61,6.08,14.55,7.29,26.08,18.08,35.82,30.95,.74,.98,1.66,2.05,2.74,2.53,10.58,4.68,19.65,11.54,28.5,19.7Zm-119.01,77c.59,.18,1.29,.46,2.01,.61,8.34,1.72,16.7,1.74,25.01-.05,14.87-3.22,26.18-11.03,31.61-25.78,3.13-8.5,2.55-17.33,1.14-26.06-.71-4.41-2.18-8.69-3.31-13.03l-.84,.14c-1.61,36.11-18.91,58.51-55.62,64.17Zm-9.06-55.93c-.07,28.55-13.49,47.01-40.92,55.21,5.6,.16,11.29,.87,16.75,.03,14.22-2.2,25.13-9.42,29.51-23.72,3.39-11.06,.22-21.53-5.34-31.52Zm51.94,82.93c6.57,6.14,16.28,8.76,24.38,2.27,1.8-1.44,4.35-2.03,6.64-2.75,4.13-1.3,8.43-6.26,8.79-10.42q-7.62,8.22-11.12,7.87c1.63-6.04,8.01-9.72,8.04-16.75-.68,1.12-1.16,1.94-1.66,2.73-3.95,6.3-6.6,7.34-13.76,5.41-4.57-1.23-8.8-.45-12.32,2.65-3.13,2.76-5.92,5.89-9,9Zm-89.81-11.75c1.79,5.11,4.13,9.04,8.86,11.11,3.17,1.39,6.62,2.38,9.42,4.3,6.49,4.46,17.24,2.52,22.96-4.5-2.14-1.86-4.51-3.61-6.51-5.73-4.78-5.04-10.23-6.81-16.9-4.31-3.59,1.35-6.72,.49-9.15-2.51-1.42-1.75-2.72-3.58-4.41-5.82,.21,1.09,.18,1.73,.44,2.19,1.85,3.28,3.84,6.48,5.59,9.82,.7,1.34,.91,2.95,1.34,4.43-1.49-.44-2.98-.85-4.45-1.34-.34-.11-.63-.46-.89-.74-1.96-2.14-3.92-4.3-6.27-6.9Zm133.41-82.95c-4.85,4.9-5.39,8.77-1.69,11.9,3.58,3.04,9.61,2.27,12.4-1.84,.91-1.34,1.84-3.6,1.3-4.78-1.12-2.46-3.22-4.47-5.01-6.79,2.27-2.61,1.97-4.36-2.04-5.81-2.61-.94-5.45-1.4-8.23-1.67-1-.1-2.69,.77-3.01,1.6-.33,.85,.34,2.5,1.1,3.27,1.53,1.56,3.43,2.77,5.18,4.12Zm83.19-23.21c-.68,0-1.37-.07-2.04,.01-3.77,.49-6.96,4-6.84,7.49,.1,3.1,2.84,5.79,6.44,5.89,1.78,.05,3.7-.33,5.33-1.03,3.37-1.45,4.98-4.64,4.31-7.74-.59-2.75-3.56-4.67-7.2-4.62Zm-11.42,1.33c4.02-.06,9.27-5.37,9.98-10.09,.41-2.75-1.01-4.02-3.54-2.83-4.12,1.93-6.94,5.3-8.8,9.35-1.08,2.36-.06,3.61,2.36,3.58Zm-68.74,47.89c4.45-.91,7.84-2.92,10.45-6.09,.58-.71,1.11-2.3,.75-2.76-.56-.71-1.98-1.22-2.92-1.06-4.26,.69-7.36,3.33-9.88,6.67-.39,.51-.53,1.64-.22,2.13,.39,.62,1.36,.87,1.82,1.13Zm57.85-32.58c4.47-.32,7.67-2.06,9.98-5.18,.58-.79,.9-2.62,.42-3.15-.63-.71-2.49-1.18-3.25-.75-2.89,1.66-5.61,3.65-8.27,5.68-.56,.43-1.07,1.77-.8,2.24,.39,.68,1.5,.94,1.91,1.17Zm-46.7,11.94c2.01,3.24,8.78,4.37,11.59,1.91,1.21-1.06,1.2-2.14-.13-3.13-2.95-2.21-9.03-1.57-11.47,1.22Z"/><path d="M454.1,319.52c1.54-1.8,2.73-3.16,3.88-4.55,3.61-4.35,7.53-8.49,10.74-13.13,8.12-11.76,8.93-24.46,3.79-37.62-.75-1.91-.58-3.24,.47-5.06,3.87-6.75,7.42-13.68,11-20.38,7.77,8.83,16.02,32.29,8.62,50.51-6.57,16.16-24.99,31.27-38.49,30.24Z"/></svg>