<?xml version="1.0" encoding="UTF-8"?><svg id="a" xmlns="http://www.w3.org/2000/svg" viewBox="0 0 800 600.7"><path d="M564.55,417.38c.49-1.47,.98-2.95,1.51-4.56-.82-.22-1.51-.28-2.05-.59-1.09-.62-2.1-1.38-3.15-2.08,1-1.11,1.81-2.57,3.04-3.27,2.99-1.7,6.06-1.56,8.91,.6,.51,.38,1.31,1.01,1.67,.85,3.69-1.66,5.99,.72,8.26,2.7,1.6-3.56,3.18-7.1,4.76-10.64,.53,.04,1.06,.08,1.58,.11,.95,2.24,1.9,4.47,2.84,6.71l.46-.12c-.13-1.48-.26-2.96-.39-4.44l.65-.34c.93,1.57,1.79,3.18,2.79,4.7,1.26,1.91,2.63,3.74,3.95,5.61-.46,.35-.92,.96-1.39,.98-1.25,.06-2.51-.15-3.76-.25l-.02,.74c2.37,.76,4.74,1.52,7.52,2.41,1.02-2.22,2.13-4.64,3.25-7.06l-.71-.48c-1.35,.96-2.7,1.91-4.06,2.87l7.53-10.1c-1.78-.25-3.46-.48-5.75-.8,2.6-3.77,5.21-7.54,8.03-11.63,1.8,2.07,2.96,3.41,4.43,5.12,1.03-4.59,3.33-2.21,5.47-1.5,1.05,.35,2.69,.73,3.33,.2,2.67-2.19,5.32-2.26,8.65-.44,.4-3.58,.78-6.92,1.14-10.26,.06-.57,.07-1.14,.09-1.71,.12-2.98,2.49-6.29-.67-7.72,1.32-2.78,2.38-5,3.33-7.01,.6,1.74-1.48,5.07,1.84,5.7-.83,1.33-2.26,2.61-2.39,4.01-.5,5.45-.74,10.93-.73,16.41,0,1.38,1.26,2.75,1.91,4.06-.47-.16-1.28-.42-2.08-.69l-.52,.54c1.86,1.15,3.72,2.29,5.57,3.44l-.91,1.26c-2.29,.93-6.46,.27-4.5,5.19,1.2-.81,2.2-1.49,3.2-2.16l.76-.8c.44,.89,.88,1.78,1.47,2.97,3.18-4.76,7.52-4.52,12.29-3.49-1.61,1.18-3.04,2.24-4.48,3.29,4.45-1.6,8.16-1.11,10.89,3-4.4,3.06-11.35,2.69-15.52-.69,.46,1.44,.92,2.88,1.64,5.16-2.37-.47-4.36-1.19-6.33-1.14-1.25,.03-2.81,.93-3.64,1.93-1.79,2.15-3.22,4.6-4.76,6.95-.29,.44-.38,1.01-.42,1.73,3.26-3.7,7.23-5.05,11.81-3.5,5.76,1.95,8.65,6.62,11.13,12.81-8.55-5.84-17.15-4.68-25.82-3.37-2.18,.33-4.45,.05-6.68,.05-.13-.39-.26-.78-.39-1.16-1.06,1.42-2.22,2.77-3.17,4.26-38.1,59.62-93.27,93.97-161.44,109.03-26.57,5.87-53.49,8.03-80.61,5.97-45.66-3.48-88.46-16.15-127.24-41.1-.99-.63-2.53-.36-3.81-.59-1.27-.23-2.72-.27-3.72-.94-1.28-.87-2.18-2.29-3.43-3.68-.61,.32-1.31,.68-2.44,1.26l.3-3.15c-.73,.71-1.92,1.85-3.07,2.97-4.66-4-22.12-.23-30.6,6.35,1.15-6.77,4.02-11.92,9.71-15.42,6.75-4.16,11.59,.2,17.01,3.31-1.71-2.56-3.41-5.12-5.09-7.64-1.62,.33-3.14,.64-4.66,.96l-.23-.76c1.15-.83,2.3-1.65,3.98-2.86-4.07-2.41-5.51-7.23-10.74-5.42-.72,.25-1.94-.93-2.48-1.21-2.27,1.45-4.39,2.81-6.51,4.16l-.81-.79c.73-2.61,1.47-5.21,2.2-7.82-3.21,7.64-10.11,8.32-16.87,9.7q2.1-7,9.12-8.83c-1.89-.58-3.37-1.04-4.85-1.5,3.67-3.7,9.61-4.14,16.35-1.13-63.13-72.07-82.92-153.65-53.03-245.36,12.92-39.63,36.89-72.37,69.17-98.91-46.49,43.02-70.41,96.33-71.53,159.46-1.13,63.29,22.9,116.55,66.44,161.51,.29-.1,.58-.19,.86-.29-.83-3.36-1.65-6.72-2.54-10.32-.94,.1-1.96,.21-3.87,.41,4.68-4.05,1.91-8.14,1.87-12.23,.42,1.12,.85,2.23,1.25,3.35,.42,1.18,.58,2.53,1.29,3.5,.71,.97,1.94,1.54,3.26,2.52l-1.03,2.21c-.98,12.28,6.41,19.94,16.53,25.92,.07-.46,.24-.91,.18-1.33-.05-.35-.37-.65-.6-1.02,11.7-3.99,12.6-3.23,15.87,1.34-1.65,.38-3.38,.78-5.11,1.19-.32,.08-.63,.2-.94,.3,1.29,3.43-1.94,2.39-3.23,3.27-.17,.11-.24,.37-.38,.6,1.28,2.96,3.1,3.23,5.89,1.68,5.54-3.08,11.33-2.9,17.15-.64,1.87,.73,3.8,1.28,4.92,1.65,1.91-3.16,3.49-5.78,5.07-8.4l.88,.39,.38,1.99c1.32-1.06,2.41-2.42,3.8-2.92,1.13-.4,2.62,.22,4.26,.43,4.05-2.31,8.53-1.42,13.68,.22,2.73-6.24,5.75-12.45,8.21-18.87,6.43-16.76,9.96-34.24,12.48-51.97,1.68-11.83,3.69-23.62,5.67-35.4,.85-5.07,.43-9.87-1.24-14.77-1.59-4.7-3.14-9.62-3.4-14.51-.35-6.55,3.2-11.5,10.5-16.97-6.19-1.71-11.98-3.31-17.78-4.91-.66-.18-1.33-.31-1.98-.5-5.44-1.59-10.27-2.02-13.78,4.02-2.49,4.3-7.29,5.64-11.98,6.46-3.1,.54-4.65,1.85-3.93,5.23,.47,2.22,.76,4.5,.85,6.76,.04,1.14-.54,2.31-.84,3.47l-1.43,.04c-1.15-4.03-2.29-8.06-3.44-12.09l-.71-.14c-.41,2.1-1.06,4.19-1.19,6.31-.18,2.95,.2,5.94,0,8.89-.14,2.16-.83,4.3-3.78,4.39-.5-4.4-.98-8.71-1.5-13.3-3.02,1.95-2.97,6.89-7.88,6.27,2.21-6.54,4.29-12.71,6.46-19.14-5.08,.61-9.64,6.45-15.77,2.79,.31-.54,.4-.95,.64-1.07,10.93-5.83,22.15-11.15,32.72-17.57,10.42-6.33,21.29-7.15,32.91-5.76,20.73,2.47,41.47,4.91,62.44,3.95,5.85-.27,11-1.58,16.01-4.84,16.75-10.9,31.68-23.93,45.64-38.11,2.02-2.05,3.32-4.85,4.8-7.4,2.28-3.93,4.26-8.03,6.71-11.84,.79-1.22,2.67-1.74,4.03-2.56-2.33,3.57-4.65,7.12-6.96,10.68,2.56-1.08,4.21-2.99,6.29-3.98,2.64-1.26,2.59-2.67,1.36-4.77-.34-.58-.5-1.26-.75-1.89-2.29-3.87-4.59-7.73-7.04-11.86-3.78,2.65-6.87,4.94-10.09,7.03-4.56,2.97-6.45,2.46-9.56-2.06-.62-.9-1.67-1.49-2.37-2.35-.84-1.04-1.52-2.21-2.27-3.32l.73-.49c-1.51-.69-3.02-1.37-4.66-2.12,.53-1.37,.97-2.49,1.42-3.63-.35-.3-.56-.57-.83-.71-1.81-.89-4.41-1.32-5.19-2.75-.62-1.13,1.3-3.44,1.57-5.3,.48-3.35,1.01-6.8,.64-10.11-.18-1.64-2.1-3.32-3.6-4.54-2.28-1.86-5.16-3.02-7.28-5.02-7.35-6.95-6.19-20.08,1.88-26.3,3.56-2.74,6.77-5.96,9.96-9.13,5.39-5.37,12.11-7.85,19.3-9.58,13.15-3.17,25.34-1.2,36.51,6.44,2.64,1.81,3.66,.57,4.39-1.76,.24-.75,.2-1.58,.35-2.36,1.73-9,8.39-12.9,16.83-9.23,3.44,1.49,6.04,1.48,9.37,.01,12.95-5.71,24.46,4.28,25.69,17.32,.61,6.41-1.12,12.16-4.35,17.6-2.27,3.82-4.69,7.57-6.59,11.57-4.98,10.47-4.48,20.7,1.96,30.52,2,3.05,3.92,6.15,5.66,9.35,4.7,8.65,4.16,17.02-2,25.5,.2-.93,.24-1.35,.38-1.74,.15-.43,.36-.83,.57-1.24,3.85-7.33,3.29-14.51-.95-21.42-2.32-3.78-5.12-7.27-7.48-11.03-2.04-3.25-3.77-6.69-5.91-10.07,.86,2.78,1.53,5.64,2.63,8.33,1.29,3.15,2.92,6.16,4.46,9.21,3.82,7.54,4.2,14.96-.3,22.43-2.83,4.69-5.27,9.59-4.81,15.38-1.29-4.78,.44-8.93,2.27-13.17,1.69-3.92,3.31-7.98,4.15-12.14,.97-4.8-1.46-9.05-3.56-13.27-2.52-5.07-5.34-10.06-7.12-15.4-2.28-6.83-.78-13.51,3.02-19.63,2.4-3.87,5-7.64,7.1-11.67,3.46-6.62,5.03-13.72,3.3-21.15-1.78-7.66-12.06-13.99-19.71-12.4-.63,.13-1.19,.55-2.02,.95,7.08,.94,9.38,2.5,9.83,7.18,.19,1.96-.74,4-.85,6.01-.08,1.6-.24,3.61,.59,4.76,4.64,6.46,4.46,13.18,1.57,20.11-1.97,4.72-4.43,9.25-6.13,14.05-3.42,9.68-.73,18.75,3.14,27.75,1.72,3.99,3.37,8.39,3.44,12.63,.13,7.44-2.81,10.48-11.52,14.33,9.18,13.45,12.91,29.15,18.66,44.96,2.51-19.95,13.85-34.41,25.85-48.2,24.19-27.8,52.99-49.73,86.59-65.12,14.99-6.87,30.64-11.59,47.11-13.19,3.39-.33,6.83-.05,10.52,.43-1.03,.44-2.05,.91-3.09,1.33-11.45,4.59-22.75,9.51-31.84,18.13-8.08,7.65-13.75,16.73-14.17,28.26-.06,1.66,.64,3.65,1.65,4.98,1.83,2.39,1.6,4.48-.19,6.45-1.6,1.75-3.42,3.33-5.34,4.74-6.05,4.45-12.22,8.73-18.26,13.2-1.44,1.07-2.65,2.53-3.77,3.96-3.94,5.03-3.27,9.76,1.83,13.57,.73,.54,1.51,1.02,2.24,1.57,2.33,1.73,2.61,3.78,.43,5.71-2.47,2.18-5.16,4.11-7.78,6.11-5.99,4.59-6.8,7.38-3.97,14.29,.98,2.38,.05,3.72-2.2,4.39-3.48,1.04-7.05,1.84-10.43,3.12-1.41,.54-2.45,2.07-3.65,3.15,1.25,1.35,2.27,3.21,3.81,3.94,2.09,.98,4.6,1.09,7.29,1.65-1.16,6.79,1.02,12.46,5.9,17.29,6.38,6.3,13.87,8.27,22.27,5.54,8.83-2.87,14.94-8.88,16.79-18.14,.7-3.51,.24-7.5-.66-11.03-1.06-4.16-4.39-6.48-8.76-7.07-4.79-.64-7.46,2.06-6.59,6.86,.34,1.86,.98,3.66,1.51,5.6-3.98-2.09-5.85-6.17-4.63-9.82,1.34-3.99,5.94-6.45,10.52-5.62,7.82,1.42,13.31,8.55,13.45,17.48,.3,19.23-20.14,33.63-37.99,26.43-7.15-2.88-13.8-6.99-20.81-10.25-5.98-2.78-12.12-5.3-18.94-5.15-4.77,.1-6.64,2.2-4.64,6.44,3.02,6.42,.66,8.24-6.08,6.66-10.36-2.43-18.87-8.27-27.09-14.65-.45-.35-.86-.74-.72-.62-2.61,1.37-4.91,2.58-7.68,4.03,1.78,5.87,3.9,12.43,5.75,19.06,4.18,15,8.44,29.99,12.24,45.09,1.98,7.86,2.54,15.96,1.4,24.11-.29,2.06,.37,4.15-.92,6.2-.4,.64,.73,2.25,1.16,3.41-2.55,2.67-5.1,5.35-8.07,8.46,3.92,1.23,6.83,2.14,9.68,3.03,3.72-6.73,5.08-6.96,11.78-2.08,.67-1,1.34-1.99,2.01-2.98-1.06,2.71-.44,4.9,2.15,6.72,.39-1.06,.74-2.01,1.08-2.95,.33,.16,.67,.32,1,.47-.58,1.08-1.29,2.12-1.71,3.26-.61,1.65-1.01,3.37-1.5,5.07,1.39-.26,2.81-.44,4.17-.82,.97-.27,1.92-.72,2.78-1.25,.6-.37,1.47-1.03,1.46-1.55-.06-3.27-.13-6.56-.59-9.79-.36-2.57-2.53-2.86-4.46-2.09-1.64,.66-3,2-4.48,3.04Zm-250.53,75.65c3.34,3.07,6.98,5.96,6.87,11.3,.03-3.99,1.01-7.44,4.11-10.72l1.8,4.23c.67-1.97,1.11-3.25,1.55-4.54l-.76-1.01c-2.37,.85-4.74,1.69-7.29,2.6-1.79-.51-4.08-1.16-6.38-1.82-.45-1.15-.89-2.29-1.42-3.65,2.92-.81,5.91-3.32,8.86,.34-.51,.19-1,.38-2.37,.91,4.57-.38,8.11-.67,12.9-1.07-1.91-1.27-3.06-2.04-4.84-3.23,4.84-1.02,8.52-1.8,12.39-2.62-.03-.33-.1-1.24-.23-2.82,1.24,1.45,2.03,2.36,2.81,3.26,1.21-.59,2.36-1.15,3.5-1.71l-.37,.98c1.81,1.72,3.63,3.44,5.74,5.43,.78-.41,1.95-.74,2.71-1.48,5.11-5.04,10.39-9.95,15.06-15.38,2.03-2.37,3.83-5.89,3.8-8.87-.05-5.83-1.32-11.66-2.39-17.44-.23-1.24-1.78-2.23-3.18-3.88,.23,0-.46,0-1.68,0,1.55-1.24,3.16-2.28,1.32-2.7,.04-1.71,.49-3.17,.05-4.28-5.28-13.3-10.68-26.56-16.08-39.81-.56-1.38-1.37-2.66-2.29-4.41-3.47,8.96-6.56,17.38-9.96,25.66-4.54,11.05-9.34,21.98-13.98,32.99-1.52,3.61-3.02,7.3-.03,10.93,.72,.88,1.63,1.61,2.46,2.41,.6-1.21,1.2-2.43,1.55-3.15,1,.61,2.04,1.24,2.95,1.79-.52,1.22-.75,3.18-1.86,4.06-2.21,1.76,.06,2.93,.27,4.18,1.15,7.15-1.02,10.97-8.03,13.18-2.92,.92-5.85,1.81-8.82,2.56-6.57,1.66-11.44,5.81-16.39,10.83,1.79,1.5,3.25,3.54,5.09,3.98,1.33,.32,3.17-1.48,4.33-2.09,.87,1.06,1.65,2.01,2.42,2.94,1.24-2.16,2.2-3.85,3.18-5.56-.69-.3-1.26-.56-1.84-.81l-.06-1.05c1.5-.15,3.01-.31,4.55-.48Zm123.78-71.55l.12,.12c.13-1.1,.26-2.2,.39-3.29,.34,0,.67-.01,1.01-.02,.29,1.34,.58,2.69,.85,3.92,.39-1.56,.8-3.2,1.26-5.04-23.52-14.71-45.06-32.29-66.4-51.3,1.18,4.07,2.45,7.37,3.08,10.78,3.74,20.12,7.26,40.28,11.01,60.39,1.96,10.51,4.37,20.82,10.17,30.18,2.66,4.3,6.61,5.82,10.48,8.18,.75-1.98,1.41-3.71,2.06-5.44-.42,3.4-1.86,6.97,1.78,9.68,.3,.22-.03,1.29-.08,2.37-.93-1.35-1.57-2.27-2.62-3.79-.64,2.76-1.11,4.76-1.46,6.26,2.64,.27,5.16,.55,7.68,.77,3.31,.29,5.38-2.13,4.83-5.54-.14-.87-.12-1.77-.18-2.8-2.2,.22-4.29,.42-6.92,.68,2.8-2.11,5.01-4.17,7.58-5.51,1.05-.55,2.9,.46,4.39,.76-.43,1.11-.88,2.22-1.29,3.33-.07,.19,0,.42,0,.74,1.95,.61,3.94,1.24,6.07,1.9,.95-1.48,1.92-2.98,2.88-4.48-.87-.71-1.5-1.22-2.31-1.88,.87,.08,1.47,.14,2.12,.2-.52-2.69-1.01-5.19-1.38-7.12-6.82,.76-13.37,1.48-19.88,2.21l.58,3.49c-.59-.36-1.24-.77-1.89-1.17-.6-1.32-2.01-2.91-1.67-3.92,2.2-6.61,10.92-8.82,15.88-4.23-.2-2.65-.4-5.31-.58-7.79-2.02-.41-3.97-.8-5.93-1.2,1.22-1.41,2.34-2.71,3.46-4.01-6.71,2.56-12.85,2.27-13.9-.58,2.75-3.21,5.8-5.32,10.12-2.78-1.46-1.09-2.91-2.18-4.37-3.28l.19-.94c2.38,.2,4.89,0,7.09,.72,2.24,.74,4.16,2.42,6.13,3.63,.23-.56,.66-1.61,1.42-3.46,.41,2.09,.65,3.33,.94,4.79,2.63-1.12,4.99-2.12,7.33-3.12-1.59-4.19-4.01-5.64-7.98-3.24,.06-1.05,.11-1.86,.17-2.82h-6.64c4.04-7.01,10.11-6.19,16.38-4.54-.43-2.04-.73-3.52-1.04-4.98-.68-.09-1.49-.21-2.84-.39,.94-1.52,1.41-2.89,2.36-3.69,1.67-1.4,.71-2.03-.45-2.78Zm-52.08-101.87c8.31,3.77,16.4,7.41,24.46,11.1,22.69,10.39,43.43,24.05,63.82,38.27,4.88,3.41,9.63,1.62,13.94-.08,1.47-.58,1.46-5.19,1.88-8,.22-1.44,.06-2.98-.16-4.43-2.23-14.73-8.43-27.78-17.1-39.73-1.45-2-3.16-4.13-5.25-5.3-4.42-2.48-9.08-4.62-13.81-6.43-9.16-3.51-12.63-12.2-7.83-20.7,1.39-2.46,3.31-4.63,4.92-6.97,1.32-1.93,2.54-3.93,3.8-5.89-20.41,19.72-44.07,34.41-68.68,48.16Zm108.34-132.83c-.98,12.43-6.08,17.65-19.42,20.3,1.46,5,3.57,9.57,7.37,13.18,6.75,6.41,13.58,12.74,20.67,19.38,3.72-1.52,6.6-4.63,7.89-9.22,1.53-5.45-.05-10.2-2.8-14.93-2.79-4.78-5.89-9.59-7.46-14.81-2.6-8.62-.8-17.38,1.45-25.94,.5-1.91,.86-3.86,1.49-6.71-4.18,2.06-7.55,3.98-11.29,1.02,0,2.37-.01,4.07,0,5.78,.05,7.29-2.12,13.87-6.17,19.9-.89,1.32-3.68,2.72-1.38,4.4,2.23,1.63,3.31-1.23,4.21-2.63,2.01-3.12,3.65-6.48,5.44-9.73Zm-50.74,246.2c.25,2.83,.25,2.72,3.02,2.69,2.54-.02,5.59-1.31,6.58,1.61,1.62-3.91,3.4-8.22,5.24-12.65-2.32-1.03-5.39-2.38-8.51-3.76-.26,1.01-.47,1.82-.73,2.85-1.29-.49-2.32-.88-3.31-1.25,.07-1.06,.13-1.96,.21-3.14-1.8,.87-3.23,1.56-5.33,2.57,4.27,.97,6.21,2.96,6.18,5.61-1.25,1.52-1.95,2.38-2.65,3.23,1.09,.84,2.18,1.69,3.26,2.53-.16,.34-.31,.68-.47,1.02-1.12-.42-2.24-.84-3.47-1.31Zm177.34-228.6c10.05-4.6,16.18-13.26,22.88-21.88-8.9,.29-21.37,12.06-22.88,21.88ZM271.69,471.76l.71,.5c.59-.62,1.18-1.25,1.86-1.97,3.24,2.67,5.71,5.65,6.56,9.96l-4.48-.79c.87,2.02,1.58,3.66,2.51,5.81,5.17-6.49,10.24-12.84,15.31-19.2l-.76-.61c-.74,.67-1.47,1.35-2.32,2.12-.65-.71-1.17-1.29-1.74-1.92,.1,1.98,.19,3.76,.32,6.13-2.25-1.17-3.62-1.88-5.16-2.68l-.73,7.34c-3.62-3.51-6.48-6.27-9.65-9.35-1.04,2.01-1.72,3.32-2.4,4.64Zm321.24-232.04l.78,1.27c10.48-6.16,20.97-12.31,31.45-18.47-11.56,4.3-23.3,8.27-32.23,17.2ZM249.32,475.36l.1,1.18c1.41,.91,2.91,1.71,4.22,2.75,2,1.59,3.38,1.45,5.08-.66,1.9-2.37,4.32-4.31,7.18-7.09-5.9,1.36-11.24,2.59-16.58,3.83Zm376.02-70.68c-1.14,1.66-1.63,2.38-2.42,3.53,2.45-.62,4.35-1.1,6.6-1.67,.36-1.17,.88-2.88,1.13-3.7-2.88-.9-5.46-1.83-8.1-2.47-1.05-.25-2.88-.28-3.25,.29-.88,1.37-1.1,3.17-1.47,4.41,2.76-.14,4.74-.24,7.51-.39Zm-151.24,26.53c-3.57-1.41-6.85-2.7-10.96-4.32,2,4.42,3.67,8.12,5.35,11.82,2-2.67,3.67-4.9,5.61-7.5Zm-142.58,66.91c3.27-2.42,6.17-4.56,9.07-6.71l-.61-.75c-.68,.49-1.37,.98-2.19,1.57l-1.04-2.84c-2.25,.72-4.32,1.39-6.6,2.13,1.33,1.41,2.26,2.4,3.19,3.39-.33,.24-.66,.48-.99,.72-.72-.67-1.43-1.33-2.15-2l-.48,.34c.6,1.38,1.2,2.76,1.8,4.14Zm74.62-22.24c-.39-.03-1.39-.12-2.29-.2l-1.11,7.94c5.22,1.15,6.43,.3,6.37-4.98-1.08,.69-2.03,1.29-3.84,2.45l.88-5.21Zm188.46-210.94l.31,1.01c4.54,.17,12.08-2.65,14.66-6.08-5.53,1.87-10.25,3.47-14.98,5.06Zm-5.16,37.45c-5.43-3.24-16.37-4.98-21.93-3.97,6.66,1.21,13.99,2.53,21.93,3.97Zm-120.79,138.2c-1.29-1.11-2.39-3.54-5.05-1.17,2.38,1.2,4.53,2.27,7.09,3.56,1.04-2.14,2.01-4.13,2.97-6.12l-.97-.63c-1.25,1.35-2.5,2.7-4.04,4.36Zm-27.43,13.84c-.67,3.16-1.31,6.16-2.12,9.96,4.38-4.7,4.79-7,2.12-9.96Zm52.13-19.08c-.09-.32-.17-.64-.26-.97l-2.75-.54-3.77,5.39,.41,.64c2.12-1.51,4.24-3.02,6.36-4.52Zm71.18-7.02c-.61-5.08-2.32-7-5.89-6.98,1.9,2.25,3.59,4.26,5.89,6.98Zm40.13-5.38c-3.04,1.37-1.18,3.07-.64,4.52,.14,.38,1.12,.45,1.71,.66-.14-1.3-.24-2.61-.44-3.9-.06-.4-.37-.77-.63-1.29Z"/><path d="M599.86,389.9c-1.04,.57-1.92,1.06-3.09,1.7-.33-.93-.6-1.69-.9-2.52-.42,.52-.86,1.06-1.46,1.8-.93-3.87-3.43-2.19-5.5-1.96,1.96-4.97,6.63-7.43,11.71-6.33,2.76,.6,5.56,1.12,8.36,1.26,.77,.04,1.33-.88,2.66-.18,3.37,1.77,3.6,1.94,1.14,4.83l-1.84-2.65c-2.91,3.56-5.7,6.97-8.86,10.84-.8-2.45-1.45-4.43-2.22-6.79Z"/><path d="M241.53,454.87c-1.24,.24-2.72,.52-4.41,.84v3.24c-1.33-.88-2.38-1.57-4.12-2.72-.16,.37-.45,1.06-.59,1.39-1.02-.45-1.86-.82-3.13-1.38,.98-.77,2-1.57,3.29-2.59-.76-1.56-.63-3.3,1.94-3.68,1.24-.18,2.95-.44,3.74,.2,1.31,1.07,2.05,2.84,3.27,4.69Z"/><path d="M596.57,376.82c.73-.73,1.55-1.39,2.15-2.21,.44-.6,.41-1.61,.92-2.08,.89-.83,1.96-1.62,3.1-1.98,.78-.24,1.79,.28,2.93,.51l-.52,2.49c1.56,.41,3.12,.82,4.99,1.32-3.48,2.06-6.2,3.68-9.23,5.48,.2-1.48,.38-2.74,.61-4.39-1.64,.62-2.96,1.11-4.28,1.61l-.67-.73Z"/><path d="M269.82,115.74h6.73c-1.6-1.99-2.75-3.41-3.9-4.83l.41-.43c1.14,1.05,2.28,2.09,3.69,3.39,.16-2.57,.3-4.75,.44-6.93l.7,.03v6.74l3.1-1.43-1.86,2.84c1.97,.28,3.84,.55,5.71,.82l.04,.44c-1.76,.09-3.52,.18-5.76,.3l3.39,3.71c-1.88-1.05-2.92-1.63-4.4-2.45v6.85l-.85,.04c-.13-1.54-.04-3.15-.45-4.62-.35-1.26-1.01-3-1.99-3.4-1.45-.58-3.3-.15-4.98-.15l-.02-.91Z"/><path d="M282.64,459.84c-1.56-.95-3.11-1.89-4.63-2.82l-.36,1.8c-1.23-.52-2.33-.98-3.81-1.61,1.46-1.52,2.9-3.03,5.02-5.23,2.21,1.05,4.97,2.36,7.74,3.67l-.34,.89c-1.63-.46-3.26-.92-5.25-1.47,.94,1.5,1.73,2.78,2.53,4.06-.3,.24-.6,.48-.9,.72Z"/><path d="M254.52,427.1c.02-.2,.11-1.19,.2-2.18l.55-.04c.12,1.09,.24,2.18,.39,3.56l.85-1.16c1.12,.91,2.08,1.7,3.25,2.66-1.15,.18-2.25,.35-3.59,.56,.65,.77,1.2,1.43,2.16,2.57l-2.65-.88c-.14,.97-.27,1.9-.31,2.18-1.21-1.62-2.64-3.53-4.22-5.64,.44-.21,1.59-.76,3.39-1.63Z"/><path d="M329.31,106.47l1.56,2.73c-1.16-.6-1.78-.93-2.57-1.34-.13,.99-.24,1.8-.35,2.62-.1-2.98-1.18-4.83-4.54-5.15,1.08-.21,2.17-.41,3.44-.66l-.93-3.17c.91,.83,1.38,1.26,2.07,1.88l.18-2.06-.79,.78,1.99,1.77c.36-.31-.05,.05-.82,.7,1.54,.41,2.75,.73,4.73,1.26l-3.99,.65Z"/><path d="M551.06,399.3c1.51-1.97,2.57-3.36,3.73-4.88,1.18,1.52,2.61,3.37,4.04,5.21l-.81,.83-2.84-.84c-.14,1.19-.26,2.17-.38,3.15l-.3,.02c-.12-.91-.25-1.82-.36-2.64-1.1-.31-2.2-.61-3.07-.85Z"/><path d="M579.51,396.04c-1.8,.95-3.08,1.62-4.28,2.24-.48-.8-1.2-2.03-1.93-3.25,.45,.49,.9,.97,1.36,1.46l3.17-2.44c-.64-.67-1.28-1.33-1.92-2l3.6,3.97Z"/><path d="M660.58,323.58c-.79,.83-1.83,1.93-2.76,2.91-.79-1.06-1.6-2.15-2.29-3.07,.68-.89,1.5-1.94,2.11-2.74,.87,.86,1.89,1.87,2.94,2.9Z"/><path d="M277.78,423.68c-.56-.77-1.22-1.67-1.91-2.62l2.06-3.01c2.12,2.24,2.12,2.31-.14,5.63Z"/><path d="M178.02,140.65c.67,.75,1.47,1.63,2.35,2.61-.5,.38-1.29,.99-2.26,1.73-.73-.57-1.73-1.35-2.63-2.05,.85-.77,1.72-1.54,2.54-2.28Z"/><path d="M437.8,421.48c-.11,3.44-2.56,4.15-5.29,4.54,1.47-1.87,1.15-5.95,5.41-4.42l-.12-.12Z"/><path d="M404.69,409.45c-.86-1.24-1.8-2.6-2.76-3.99l2.78-2.37c2.06,1.98,2.01,4.31-.02,6.36Z"/><path d="M360.32,468.39c-.24-1.71-.48-3.43-.63-4.51-1.44-.37-2.47-.64-2.64-.68,0-1.64-.19-2.78,.07-3.81,.15-.58,1.01-1.26,1.64-1.36,1.19-.2,2.64-.4,3.65,.08,2.8,1.36,.8,4.29,2.01,6.56-1.03-.28-1.74-.47-2.53-.68l-1.01,4.45-.55-.05Z"/><path d="M343.13,451.39l-.77-3.51,3.22-2.23c1.15,.88,2.67,2.03,4.44,3.37-1.07,.26-2.06,.5-3.17,.78,.6,.45,1.18,.89,1.33,.99l-2.86,2.44c-.04-.33-.14-1.21-.26-2.22-.85,.17-1.56,.31-1.93,.38Z"/></svg>